<svg id="Calque_1" data-name="Calque 1" xmlns="http://www.w3.org/2000/svg" viewBox="0 0 268.68 86.87"><defs><style>.cls-1{fill:#fff;}</style></defs><title>logo</title><g id="_3iNyFZ.tif" data-name="3iNyFZ.tif"><path class="cls-1" d="M131.29,96.53c-4.74,5.23-10.44,8.64-17.35,9.23a26.81,26.81,0,0,1-10-1c-6.49-2-9.57-7.17-9.6-15.23-0.06-15.6,0-31.2,0-46.8a33.1,33.1,0,0,0-.23-4.5c-0.48-3.45-1.93-4.78-5.39-4.88-3.1-.09-6.2-0.08-9.3,0-3.61.08-5.17,1.4-5.61,5a53.23,53.23,0,0,0,0,6.22h9.65V55.22H73.78V105H57.32V55.46H49.57V44.78h7.76c0-3.1,0-6,0-8.85,0-10.86,5.64-16.44,16.57-16.45H84.24v10h26.5c0,1.4,0,2.47,0,3.55,0,17.57,0,35.15,0,52.72a40.87,40.87,0,0,0,.64,7.84c1.21,6,6.13,8.43,11.73,5.76a15.75,15.75,0,0,0,3.61-2.63c1.87-1.69,2.47-3.31,1.2-6.09-7.53-16.54,2-35.37,19.29-37.92,10.92-1.61,20.56,1.33,26.8,11s6.4,20.22.37,30.13-15.48,12.84-26.53,11.62A25.32,25.32,0,0,1,131.29,96.53Zm31.42-17.36c-0.87-3.14-1.41-6.31-2.64-9.18-1.43-3.35-4.3-5-8.08-5.06A8.37,8.37,0,0,0,143.9,70a20.74,20.74,0,0,0-.14,18,8.41,8.41,0,0,0,8,5.26c3.86,0.07,6.86-1.59,8.36-5.07C161.31,85.36,161.84,82.29,162.71,79.16Z" transform="translate(-49.57 -19.49)"/><path class="cls-1" d="M231.5,86.77q1.95-7.59,3.89-15.17c0.67-2.64,1.26-5.29,2-7.93,2.5-9.47,11.92-15.76,23-15.33,4.88,0.19,9.5,1.25,13.46,4.3,3.78,2.91,5.27,7.08,4.08,11.18a7.15,7.15,0,0,1-9.64,4.7A6.9,6.9,0,0,1,264.44,59c0.11-.26.25-0.5,0.38-0.76,1.61-3.16,1.43-4.55-.76-5.72-2.66-1.42-6.18-.69-7.29,1.92-1.46,3.44-2.54,7.05-3.66,10.63-3.92,12.54-7.83,25.08-11.62,37.66-0.61,2-1.57,2.62-3.58,2.54-3.75-.15-7.52-0.19-11.27,0-2.17.11-2.91-.76-3.35-2.72-2.1-9.24-4.33-18.45-6.51-27.68a5.89,5.89,0,0,0-1.11-2.52c-0.52,2-1.09,4-1.56,5.95-1.88,8-3.82,16.07-5.55,24.15-0.47,2.17-1.33,2.92-3.55,2.81-3.94-.18-7.89,0-11.83-0.12a3.13,3.13,0,0,1-2.39-1.51c-5.06-15.92-10-31.88-14.94-47.83a4.52,4.52,0,0,1,0-1.06c5,0,9.95-.08,14.91.1,0.67,0,1.64,1.3,1.86,2.15,2.48,9.25,4.83,18.53,7.22,27.8A3.44,3.44,0,0,0,201,86.66l7-31.73h15.71L231,86.75Z" transform="translate(-49.57 -19.49)"/></g><path class="cls-1" d="M265.31,99.44c0,4.74-1.17,6.92-5.57,6.92s-5.57-2.19-5.57-6.92c0-4.48,1.46-6.61,5.57-6.61S265.31,95,265.31,99.44Zm-2,0c0-3.62-.78-4.92-3.57-4.92s-3.57,1.3-3.57,4.92,0.49,5.23,3.57,5.23S263.31,103.13,263.31,99.44Z" transform="translate(-49.57 -19.49)"/><path class="cls-1" d="M268.48,106.1v-13h1.93V94a9.89,9.89,0,0,1,4-1.17c3.59,0,4.4,1.77,4.4,6.4v6.87h-1.93V99.28c0-3.44-.39-4.71-2.81-4.71a8.91,8.91,0,0,0-3.67,1V106.1h-2Z" transform="translate(-49.57 -19.49)"/><path class="cls-1" d="M282.62,87.41h2V106.1h-2V87.41Z" transform="translate(-49.57 -19.49)"/><path class="cls-1" d="M288.48,87.88h2v2.26h-2V87.88Zm0,5.21h2v13h-2v-13Z" transform="translate(-49.57 -19.49)"/><path class="cls-1" d="M294.18,106.1v-13h1.93V94a9.89,9.89,0,0,1,4-1.17c3.59,0,4.4,1.77,4.4,6.4v6.87h-1.93V99.28c0-3.44-.39-4.71-2.81-4.71a8.91,8.91,0,0,0-3.67,1V106.1h-2Z" transform="translate(-49.57 -19.49)"/><path class="cls-1" d="M317.76,104.41l0.05,1.54a45.38,45.38,0,0,1-5.08.42c-3.88,0-5.15-2.26-5.15-6.69,0-4.95,2.13-6.85,5.44-6.85,3.46,0,5.23,1.82,5.23,6.09l-0.1,1.48h-8.59c0,2.79.86,4.24,3.41,4.24C314.92,104.64,317.76,104.41,317.76,104.41Zm-1.46-5.57c0-3.23-1-4.37-3.28-4.37s-3.46,1.22-3.49,4.37h6.77Z" transform="translate(-49.57 -19.49)"/></svg>